/* XPM */
static char *result[] = {
/* columns rows colors chars-per-pixel */
"40 40 15 1 ",
"  c #3687BD",
". c #3688BF",
"X c #388CC4",
"o c #3A92CB",
"O c #3D98D3",
"+ c #3F9CD9",
"@ c #409FDD",
"# c #419FDD",
"$ c #41A0DE",
"% c #41A0DF",
"& c #44A6E6",
"* c #45ABED",
"= c #49B6FD",
"- c #4AB7FF",
"; c None",
/* pixels */
";=------------------------------------=;",
"=**&&&&&&&&&&&&&&&&&&&&&&&&&&&&&&&&&&**=",
"*$####################################$*",
"%######################################%",
"#####Ooo+######################+ooO#####",
"####O.  X+####################+X  XO####",
"####o    O$##################$O    o####",
"####o    O$##################$O    o####",
"####+X  o+####################+o  X+####",
"#####+OO+######################+OO+#####",
"######$$########################$$######",
"########################################",
"########################################",
"########################################",
"########################################",
"########################################",
"########################################",
"########################################",
"########################################",
"########################################",
"########################################",
"########################################",
"########################################",
"########################################",
"########################################",
"########################################",
"########################################",
"########################################",
"########################################",
"######$$########################$$######",
"#####+OO+######################+OO+#####",
"####+X..o+####################+o..X+####",
"####o   .O$##################$O.   o####",
"####o    O$###################O    o####",
"####O.  X+####################+X  .O####",
"####$Ooo+######################+ooO#####",
"########################################",
"+#######################################",
"@######################################@",
";@####################################@;"
};
