/* XPM */
static char *result[] = {
/* columns rows colors chars-per-pixel */
"40 40 41 1 ",
"  c #BA5512",
". c #BB5512",
"X c #BC5612",
"o c #BF5712",
"O c #BC5A19",
"+ c #B5642C",
"@ c #AC6C3D",
"# c #C35913",
"$ c #C75B12",
"% c #CD5C12",
"& c #D46014",
"* c #DA6415",
"= c #E36715",
"- c #E56816",
"; c #EA6914",
": c #E86A17",
"> c #C1682C",
", c #CE7A3E",
"< c #AB7951",
"1 c #A17E5E",
"2 c #C27640",
"3 c #9C8972",
"4 c #959183",
"5 c #8F9A94",
"6 c #8D9E9B",
"7 c #89A4A5",
"8 c #89A4A6",
"9 c #8AA5A7",
"0 c #88A5A8",
"q c #8CA8AA",
"w c #8FABAD",
"e c #91AEB0",
"r c #93B1B3",
"t c #95B3B5",
"y c #96B4B6",
"u c #99B7B9",
"i c #9DBDBF",
"p c #9EBEC0",
"a c #A0C0C1",
"s c #A0C0C2",
"d c None",
/* pixels */
"dddddddddddddpsssspppppssadddddddddddddd",
"dddddddddddaipyyyyeeyeeyyypssddddddddddd",
"dddddddddsiye9988888889889qeyisddddddddd",
"dddddddaiyq988888888888888888qyiaddddddd",
"ddddddsyq8888888888888888888888qpsdddddd",
"dddddsy9888889988877778890888887qysddddd",
"ddddsy9888887541<<@@@@@13469888889ysdddd",
"ddday98888061+O#$$%%%%$#oO@36088887yaddd",
"dddy9888884@#&*=---:::-==*%O@4888888yddd",
"dduq888803+%=:::::::::::::-=%+4888889udd",
"dpe888894+&-::::::::::::::::-&+498888epd",
"dr988885+*::::::::::::::::::::*@588889rd",
"dw888871&::::::-*******=:::::::&178888wd",
"tq88895>-::::-&#ooXXXXo#$&-::::->59888qt",
"r888803*::::-%X ........ X%-::::*388888r",
"w88889<-:::-%X.............&:::::<88887w",
"q888872;:::*o..............o*:::;278888q",
"888887,;:::%............... &:::;,788888",
"888887,;:::$ .............. $:::;,788888",
"888887,;:::$ .............. $:::;,788888",
"888887,;:::$ .............. $:::;,788888",
"888887,;:::$ .............. $:::;,788888",
"888887,;:::$ .............. $:::;,788888",
"888887,;:::$ .............. $:::;,788888",
"888887,;:::$ .............. $:::;,788888",
"888887,;:::$ .............. $:::;,788888",
"888887,;:::$ .............. $:::;,788888",
"888887,;:::$ .............. $:::;,788888",
"888887,;:::$ .............. $:::;,788888",
"888887,;:::$ .............. $:::;,788888",
"888887,;:::$ .............. $:::;,788888",
"888887,;:::$ .............. $:::;,788888",
"888887,;:::$ .............. $:::;,788888",
"888887,;:::$ .............. $:::;,788888",
"888887,;:::%oooooooooooooooo%:::;,788888",
"888887,;:::-=--------------=-:::;,788888",
"888887,;::::::::::::::::::::::::;,788888",
"888887,;::::::::::::::::::::::::;,788888",
"888887,;::::::::::::::::::::::::;,788888",
"888887,;::::::::::::::::::::::::;,788888"
};
