/* XPM */
static char *result[] = {
/* columns rows colors chars-per-pixel */
"40 40 26 1 ",
"  c #3587BD",
". c #3688BE",
"X c #3789C0",
"o c #3B96D1",
"O c #3D96D2",
"+ c #3E99D5",
"@ c #5398C7",
"# c #539AC9",
"$ c #499ED6",
"% c #419FDE",
"& c #4CA7E2",
"* c #46B0F6",
"= c #49B7FF",
"- c #64B1E4",
"; c #6BBFF6",
": c #70C6FF",
"> c #82C0E8",
", c #B2D8F0",
"< c #C7DEED",
"1 c #CAE0EF",
"2 c #DBF1FF",
"3 c #E3F2FC",
"4 c #EBF5FC",
"5 c #FCFEFF",
"6 c white",
"7 c None",
/* pixels */
"7777777777777777777777777777777777777777",
"7777777777777777777777777777777777777777",
"7777777777777777777777777777777777777777",
"7777777777777777777777777777777777777777",
"7777777777777777777777777777777777777777",
"7777777777777777777777777777777777777777",
"7777777777777777777777777777777777777777",
"7777777777777777777777777777777777777777",
"7777777777777777777777777777777777777777",
"7777777777777777777777777777777777777777",
"7777777777777777777777777777777777777777",
"7777777777777776666666666777777777777777",
"7777777777777766555555555667777777777777",
"777777777777765,----;::::256777777777777",
"77777777777765,&%%%%*====:26677777777777",
"7777777777766,&%%%%%*=====:2667777777777",
"777777777765,&%%%%%%*======:266777777777",
"77777777766,$++++O++&*******;35777777777",
"777777777761#.XXXXXX+%%%%%%%>46777777777",
"777777777765<@     .O%%%%%%>467777777777",
"7777777777766<@    .O%%%%%>4677777777777",
"77777777777765<@   .O%%%%>46777777777777",
"777777777777766<@  .O%%%>467777777777777",
"7777777777777766<@ .O%%>4577777777777777",
"77777777777777766<@ o%>45677777777777777",
"777777777777777766<@o>456777777777777777",
"7777777777777777766<>4567777777777777777",
"7777777777777777776665677777777777777777",
"7777777777777777777667777777777777777777",
"7777777777777777777777777777777777777777",
"7777777777777777777777777777777777777777",
"7777777777777777777777777777777777777777",
"7777777777777777777777777777777777777777",
"7777777777777777777777777777777777777777",
"7777777777777777777777777777777777777777",
"7777777777777777777777777777777777777777",
"7777777777777777777777777777777777777777",
"7777777777777777777777777777777777777777",
"7777777777777777777777777777777777777777",
"7777777777777777777777777777777777777777"
};
