/* XPM */
static char *result[] = {
/* columns rows colors chars-per-pixel */
"40 40 16 1 ",
"  c #829C9E",
". c #839D9F",
"X c #86A1A3",
"o c #89A4A6",
"O c #8CA8AA",
"+ c #91ADB0",
"@ c #97B4B7",
"# c #9DBCBE",
"$ c #A0C0C3",
"% c #A2C1C4",
"& c #A3C3C6",
"* c #A7C7CA",
"= c #AACBCE",
"- c #ACCED1",
"; c #AED1D4",
": c None",
/* pixels */
"::::::::::::::::::%%%%::::::::::::::::::",
":::::::::::::::::%%%%%%:::::::::::::::::",
":::::::::::%%::%%%%%%%%%%::%%%::::::::::",
":::::::::%%%%%%%%%%%%%%%%%%%%%%:::::::::",
"::::::::%%%%%%%&*======*&%%%%%%%::::::::",
"::::::::%%%%&*-;-******-;-*&%%%%::::::::",
"::::::::%%%*--&@+OOOoOO+@&--*%%%::::::::",
":::::::%%&=;&+oooooooooooo+&;=&%%:::::::",
"::::%%%%&--@OooooooooooooooO@-=&%%%%::::",
":::%%%%&=-+oooooooooooooooooo+-=&%%%%:::",
":::%%%%=-+XooooooooooooooooooX+-=%%%%%::",
"::%%%%*;@..XooooooooooooooooX..@;*%%%%::",
"::%%%&-%X...XooooooooooooooX...X%-&%%%::",
":::%%*-+.....XooooooooooooX.... +-*%%%::",
"::%%%-$.......XooooooooooX.......$-%%%::",
"::%%&;+ .......XooooooooX........+;&%%::",
"::%%*=O ........XoOOOOoX........ O=*%%::",
":%%%=&X..........O#$$#O..........X&=%%%:",
"%%%%-$..........X#%%%%#X..........$-%%%%",
"%%%%-$ ........ +%%%%%%O......... $-%%%%",
"%%%%-$ .........O$%%%%%+......... $-%%%%",
"%%%%-$..........o#%%%%#o..........%-%%%%",
":%%%=&X..........+$%%$+..........X*=%%%:",
"::%%**o ........Xo++++oX........ O=*%%::",
"::%%&;+ .......XooooooooX....... +;&%%::",
":::%%-#.......XooooooooooX.......%-%%%::",
":::%%*=O ....XooooooooooooX.... O-*%%:::",
"::%%%&-#....XooooooooooooooX...X%-&%%%::",
"::%%%%*-+..XooooooooooooooooX..@;*%%%%::",
"::%%%%%==+XooooooooooooooooooX+-=%%%%%::",
":::%%%%&==@oooooooooooooooooo@=-&%%%%:::",
"::::%%%%&=-@OooooooooooooooO@-=&%%%%::::",
":::::::%%&=;%+oooooooooooo+%;=&%%:::::::",
"::::::::%%%*--$@OooooooO@$--*%%%::::::::",
"::::::::%%%%&*-;=&%%%%&=;-*&%%%%::::::::",
"::::::::%%%%%%&&*------*&&%%%%%%::::::::",
":::::::::%%%%%%%%%%%%%%%%%%%%%%:::::::::",
"::::::::::%%%%%%%%%%%%%%%%%%%%::::::::::",
":::::::::::::::::%%%%%%:::::::::::::::::",
"::::::::::::::::::%%%%::::::::::::::::::"
};
