/* XPM */
static char *result[] = {
/* columns rows colors chars-per-pixel */
"40 40 16 1 ",
"  c #829C9E",
". c #839D9F",
"X c #86A1A3",
"o c #89A4A6",
"O c #8CA8AA",
"+ c #91ADB0",
"@ c #97B4B7",
"# c #9DBCBE",
"$ c #A0C0C3",
"% c #A2C1C4",
"& c #A3C3C6",
"* c #A7C7CA",
"= c #AACBCE",
"- c #ACCED1",
"; c #AED1D4",
": c None",
/* pixels */
"::::::::::::::::::%%%%::::::::::::::::::",
":::::::::::::::::%%%%%%:::::::::::::::::",
"::::::::::%%%%%%%%%%%%%%%%:%%%::::::::::",
":::::::::%%%%%%&%%%%%%%%%%%%%%%:::::::::",
"::::::::%%%%%%%&*=----=*&%%%%%%%::::::::",
"::::::::%%%%&*-;=&$$$%*=;-*&%%%%::::::::",
"::::::::%%%*--$+OX.  .XO+%--*%%%::::::::",
":::::::%%&=;%+.  ......  .O%;=&%%:::::::",
"::::%%%%&=-@X..............X@--&%%%%::::",
":::%%%%&=-+..................+==&%%&%:::",
"::%%%%%=-+X..................X@-=%%%%%::",
"::%%%%*;@ooX................Xoo@;*%%%%::",
"::%%%&-&OoooX..............XoooO%-&%%%::",
":::%%*-+oooooX............Xooooo+-*%%%::",
":::%%-&oooooooX..........Xooooooo$-&%%::",
"::%%&;@ooooooooX........Xoooooooo@;&%%::",
"::%%*-+oooooooooX.XO+o.XoooooooooO=*%%::",
":%%%=*OooooooooooO#%%#+ooooooooooo&-%%%:",
"%%%%=*OoooooooooO#%%%%$+oooooooooo%-%%%%",
"%%%%=*OoooooooooO$%%%%%+oooooooooo%-%%%%",
"%%%%=*OoooooooooO$%%%%%@oooooooooo%-%%%%",
"%%%%=*OoooooooooO#%%%%#+oooooooooo%-%%%%",
":%%%=*OooooooooooO#%$#+ooooooooooo&-%%%:",
"::%%*-+oooooooooX.X+Oo.XoooooooooO=*%%::",
"::%%&;@ooooooooX........Xoooooooo@;&%%::",
":::%%-&oooooooX..........Xooooooo$-&%%::",
":::%%*-+oooooX............Xooooo+-*%%%::",
"::%%%&-&OoooX..............XoooO%-&%%%::",
"::%%%%*;@ooX................Xoo@;*%%%%::",
":::%%%%=-+X..................X@-=%%%%%::",
":::%%%%&--+..................+==&%%%%:::",
"::::%%%%&=-@X............. .+==&%%%%::::",
":::::::%%&=;%+.  ......  .O#-=&%%:::::::",
"::::::::%%%*--$+OX.  .Xo+#=-*%%%::::::::",
"::::::::%%%%&*-;=&$$$$&*;-*&%%%%::::::::",
"::::::::%%%%%%%&*=----=*&%%%%%%%::::::::",
":::::::::%%%%%%%%%%%%%%%%%%%%%%:::::::::",
":::::::::::%%:%%%%%%%%%%%::%%%::::::::::",
":::::::::::::::::%%%%%%:::::::::::::::::",
"::::::::::::::::::%%%%::::::::::::::::::"
};
