/* XPM */
static char *result[] = {
/* columns rows colors chars-per-pixel */
"40 40 4 1 ",
"  c #BB8044",
". c #AE763E",
"X c #B57C41",
"o c #C48546",
/* pixels */
"                        ......          ",
"    X                   ......          ",
"  ....      o           ......          ",
"  ....     ooo           XXXXX          ",
"  X..X    ooooo                         ",
"   X     ooooooo                        ",
"        oooooooo                        ",
"         oooooo                         ",
"           ooo                          ",
"           oo                           ",
"                                        ",
"                                        ",
"      X.XX                     X        ",
"      ......X                 X.X       ",
"      .......                X...X      ",
"      ......X                X...X      ",
"     X......X                 X.X       ",
"     X......                            ",
"     XX.....      X.X                   ",
"         X.X    X....                   ",
"                .....X                  ",
"X               X.....                XX",
".X               ....X                ..",
".X               X.X                  ..",
".X                                    ..",
"                                        ",
"                                        ",
"                            oooo        ",
"                           ooooo        ",
"            ...XX          ooooo        ",
"            ......X         ooooo       ",
"           X......          ooo   X..X  ",
"           X......                X...  ",
"           ......X                ....  ",
"           ......X                XX.X  ",
"   o        XXX..X                      ",
" oooo                                   ",
" oooo                   X..XXX          ",
"  ooo                   X.....X         ",
"                        ......X         "
};
