/* XPM */
static char *result[] = {
/* columns rows colors chars-per-pixel */
"40 40 29 1 ",
"  c #282828",
". c #2C2D2D",
"X c #313131",
"o c gray20",
"O c #393F3F",
"+ c #41494A",
"@ c #495151",
"# c #4B5253",
"$ c #515D5D",
"% c #596869",
"& c #667778",
"* c #718687",
"= c #7E9798",
"- c #89A3A5",
"; c #89A4A6",
": c #8AA5A7",
"> c #8CA8AA",
", c #8FABAD",
"< c #91AFB1",
"1 c #93B1B3",
"2 c #95B3B5",
"3 c #99B7B9",
"4 c #9BBABC",
"5 c #9CBCBE",
"6 c #9FC0C1",
"7 c #A0C0C1",
"8 c #A0C0C2",
"9 c #A0C1C2",
"0 c None",
/* pixels */
"0000000000000076778888876700000000000000",
"000000000006744222<<<<<22447900000000000",
"000000000742<>:;;;;;;;;;;:><256000000000",
"000000095<>;;;;;;;;;;;;;;;;;:>2570000000",
"00000064>;;;;;;;;;;;;;;;;;;;;;;>49000000",
"0000062:;;;;;:::;;;---;;:::;;;;;>2600000",
"000062:;;;;:;=*%$$++++@%&*=:;;;;;:260000",
"00072:;;;;:=%O           X+&=:;;;;;27000",
"0002:;;;;;*O  XXXXXXXXXXX. .+*;;;;;:2000",
"003>;;;;:&o XooooooooooooooX O*;;;;->300",
"03<;;;;:*o.oooooooooooooooooX.O*:;;;;<30",
"01:;;;:=O.oooooooooooooooooooo.+=:;;;:10",
"0,;;;;-%.oooooooooooooooooooooo.%-;;;;,0",
"3>;;;;=OXooooooooooooooooooooooXO=:;;;>3",
"1;;;;:&XooooooooooooooooooooooooX&:;;;;1",
",;;;;:$Xooooooooooooooooooooooooo$;;;;-,",
">;;;;;#XooooooooooooooooooooooooX@-;;;;>",
";;;;;-@XooooooooooooooooooooooooX@-;;;;;",
";;;;;;#XooooooooooooooooooooooooX#;;;;;;",
";;;;;;#XooooooooooooooooooooooooX#;;;;;;",
";;;;;;#XooooooooooooooooooooooooX#;;;;;;",
";;;;;;#XooooooooooooooooooooooooX#;;;;;;",
";;;;;;#XooooooooooooooooooooooooX#;;;;;;",
";;;;;;#XooooooooooooooooooooooooX#;;;;;;",
";;;;;;#XooooooooooooooooooooooooX#;;;;;;",
";;;;;;#XooooooooooooooooooooooooX#;;;;;;",
";;;;;;#XooooooooooooooooooooooooX#;;;;;;",
";;;;;;#XooooooooooooooooooooooooX#;;;;;;",
";;;;;;#XooooooooooooooooooooooooX#;;;;;;",
";;;;;;#XooooooooooooooooooooooooX#;;;;;;",
";;;;;;#XooooooooooooooooooooooooX#;;;;;;",
";;;;;;#XooooooooooooooooooooooooX#;;;;;;",
";;;;;;#XooooooooooooooooooooooooX#;;;;;;",
";;;;;;#XooooooooooooooooooooooooX#;;;;;;",
";;;;;;#XooooooooooooooooooooooooX#;;;;;;",
";;;;;;#XooooooooooooooooooooooooX#;;;;;;",
";;;;;;#XooooooooooooooooooooooooX#;;;;;;",
";;;;;;#XooooooooooooooooooooooooX#;;;;;;",
";;;;;;#XooooooooooooooooooooooooX#;;;;;;",
";;;;;;#XooooooooooooooooooooooooX#;;;;;;"
};
