/* XPM */
static char *result[] = {
/* columns rows colors chars-per-pixel */
"40 40 73 1 ",
"  c #47521C",
". c #505C20",
"X c #576325",
"o c #606E2A",
"O c #64722B",
"+ c #6B7930",
"@ c #707F33",
"# c #68655F",
"$ c #6F685C",
"% c #5D6064",
"& c #626262",
"* c #DF652C",
"= c #C96436",
"- c #FD6720",
"; c #956B4B",
": c #93794C",
"> c #997B49",
", c #826C53",
"< c #887450",
"1 c #A26646",
"2 c #B26440",
"3 c #A37F44",
"4 c #738334",
"5 c #AE843F",
"6 c #BE8D37",
"7 c #B5883C",
"8 c #E99416",
"9 c #EA9416",
"0 c #EC9716",
"q c #ED9816",
"w c #EE9916",
"e c #F09B17",
"r c #F29C17",
"t c #F39E17",
"y c #F5A017",
"u c #F6A118",
"i c #F7A118",
"p c #F5A61E",
"a c #F8A419",
"s c #FCA719",
"d c #F6AC1F",
"f c #FEA919",
"g c #FFAA19",
"h c #FFAB19",
"j c #FEAA1A",
"k c #FFAB1A",
"l c #FFAD19",
"z c #FCAB1C",
"x c #D2962E",
"c c #DF9C29",
"v c #C28F36",
"b c #C69034",
"n c #D0B336",
"m c #DEB430",
"M c #D4B738",
"N c #E9A124",
"B c #EAAF27",
"V c #F1A420",
"C c #8DA043",
"Z c #91A445",
"A c #98AC48",
"S c #9CB04B",
"D c #9DB24C",
"F c #A2B74E",
"G c #B2B545",
"H c #BAB441",
"J c #BFBD46",
"K c #A7BD52",
"L c #AAC053",
"P c #ABC255",
"I c #ACC254",
"U c #ADC455",
"Y c None",
/* pixels */
"YYYYYYYYYYYYYYYYYYYYYYYYYYYYYYYYYYYYYYYY",
"YYYYYYYYYYYYYYYYYYYYYYYYYYYYYYYYYYYYYYYY",
"YYYYYYYYYYYYYYYYYYYYYYYYYYYYYYYYYYYYYYYY",
"YYYYYYYYYYYYYYYYYYYYYYYYYYYYYYYYYYYYYYYY",
"YYYYYYYYYYYYYYYYYYYYYYYYYYYYYYYYYYYYYYYY",
"YYYYYYYYYYYYYYYYYYYYYYYYYYYYYYYYYYYYYYYY",
"YYYYYYYYYYYYYYYYYYYYYYYYYYYYYYYYYYYYYYYY",
"YYYYYYYYYYYYYYYYYYYYYYYYYYYYYYYYYYYYYYYY",
"YYYYYYYYYYYYYYYYYYYYYYYYYYYYYYYYYYYYYYYY",
"YYYYYYYYYYYYYYYYYYYYYYYYYYYYYYYYYYYYYYYY",
"YYYYYYYYYYYYYYYYYYYYYYYYYYYYYYYYYYYYYYYY",
"YYYYYYYYYYYYYYYYYYYYYYYYYYYYYYYYYYYYYYYY",
"YYYYYYYYYYYYYYYYYYYYYYYYYYwwYYYYYYYYYYYY",
"YYYYYYYYYYgzddddddddddddzji089wYYYYYYYYY",
"YYYYYYYYYhBHGGGGGGGGGGGGHBkt88qYYYYYYYYY",
"YYYYYYYYYhmKKKKKKKKKKKKKKnki888YYYYYYYYY",
"YYYYYYYYYhmIIFSLIIIILDDLPMki889YYYYYYYYY",
"YYYYYYYYYhmUS++FUIIIK4OCIMki889YYYYYYYYY",
"YYYYYYYYYhmIKZALIIIILCCFPMki889YYYYYYYYY",
"YYYYYYYYYhmUA .AUIIUZ  SIMki889YYYYYYYYY",
"YYYYYYYYYhmUS..DUIUUA.XFIMki889YYYYYYYYY",
"YYYYYYYYYhmIIFFFCKFZKFFIPMki889YYYYYYYYY",
"YYYYYYYYYhmIIUUFOOo@KUUIPMki889YYYYYYYYY",
"YYYYYYYYYhmIIIIIFCCKIIIIPMki889YYYYYYYYY",
"YYYYYYYYYhmIPPPPPUUPPPPPPMki889YYYYYYYYY",
"YYYYYYYYYgdJJJJJJJJJJJJJJBki889YYYYYYYYY",
"YYYYYYYYYskzzzlllzzzzllzzkki80qYYYYYYYYY",
"YYYYYYYYrskkkp65xjkkjb5ckkki80erYYYYYYYY",
"YYYYYYYYysklk71=;xlzp<%6lkki8qtyYYYYYYYY",
"YYYYYYYYujjx5,*-27j3<$&:7Vki8qiuYYYYYYYY",
"YYYYYYYYikc;=22=1xp,%&&%#cli8eiiYYYYYYYY",
"YYYYYYYfskv2-*,3xjzx5##<>Nki8tssfYYYYYYY",
"YYYYYYYkklc;215zlkklc#$czjki0skkkYYYYYYY",
"YYYYYYkkkkjc56VkkkkkV6vpkkktekkkkkYYYYYY",
"YYYYYYhkkkklklkkkkkkkllkkks0tkkkkkYYYYYY",
"YYYYYYYhkkkYYYfajkYYYYYjsyYYYkkkhYYYYYYY",
"YYYYYYYYkfYYYYY9tYYYYYYyeqYYYYfkYYYYYYYY",
"YYYYYYYYYYYYkhkstwYYYYYhjkkYYYYYYYYYYYYY",
"YYYYYYYYYYYkkkkkswYYYYgkkkkkYYYYYYYYYYYY",
"YYYYYYYYYYYkkkkkkYYYYYkkkkkhYYYYYYYYYYYY"
};
