/* XPM */
static char *result[] = {
/* columns rows colors chars-per-pixel */
"40 40 72 1 ",
"  c #47521C",
". c #505C20",
"X c #576325",
"o c #606E2A",
"O c #64722B",
"+ c #6B7930",
"@ c #707F33",
"# c #68655F",
"$ c #6F685C",
"% c #5D6064",
"& c #626262",
"* c #DF652C",
"= c #C96436",
"- c #FD6720",
"; c #956B4B",
": c #93794C",
"> c #997B49",
", c #826C53",
"< c #887450",
"1 c #A26646",
"2 c #B26440",
"3 c #A37F44",
"4 c #738334",
"5 c #AE843F",
"6 c #BE8D37",
"7 c #B5883C",
"8 c #E99416",
"9 c #EA9416",
"0 c #EC9716",
"q c #ED9816",
"w c #EE9916",
"e c #F09B17",
"r c #F29C17",
"t c #F39E17",
"y c #F5A017",
"u c #F7A118",
"i c #F7A218",
"p c #F5A61E",
"a c #FCA719",
"s c #F6AC1F",
"d c #FEA919",
"f c #FEAA19",
"g c #FFAB19",
"h c #FEAA1A",
"j c #FFAB1A",
"k c #FFAD19",
"l c #FCAB1C",
"z c #D2962E",
"x c #DF9C29",
"c c #C28F36",
"v c #C69034",
"b c #D0B336",
"n c #DEB430",
"m c #D4B738",
"M c #E9A124",
"N c #EAAF27",
"B c #F1A420",
"V c #8DA043",
"C c #91A445",
"Z c #98AC48",
"A c #9CB04B",
"S c #9DB24C",
"D c #A2B74E",
"F c #B2B545",
"G c #BAB441",
"H c #BFBD46",
"J c #A7BD52",
"K c #AAC053",
"L c #ABC255",
"P c #ACC254",
"I c #ADC455",
"U c None",
/* pixels */
"UUUUUUUUUUUUUUUUUUUUUUUUUUUUUUUUUUUUUUUU",
"UUUUUUUUUUUUUUUUUUUUUUUUUUUUUUUUUUUUUUUU",
"UUUUUUUUUUUUUUUUUUUUUUUUUUUUUUUUUUUUUUUU",
"UUUUUUUUUUUUUUUUUUUUUUUUUUUUUUUUUUUUUUUU",
"UUUUUUUUUUUUUUUUUUUUUUUUUUUUUUUUUUUUUUUU",
"UUUUUUUUUUUUUUUUUUUUUUUUUUUUUUUUUUUUUUUU",
"UUUUUUUUUUUUUUUUUUUUUUUUUUUUUUUUUUUUUUUU",
"UUUUUUUUUUUUUUUUUUUUUUUUUUUUUUUUUUUUUUUU",
"UUUUUUUUUUUUUUUUUUUUUUUUUUUUUUUUUUUUUUUU",
"UUUUUUUUUUUUUUUUUUUUUUUUUUUUUUUUUUUUUUUU",
"UUUUUUUUUUUUUUUUUUUUUUUUUUUUUUUUUUUUUUUU",
"UUUUUUUUUUUUUUUUUUUUUUUUUUUUUUUUUUUUUUUU",
"UUUUUUUUUUUUwwUUUUUUUUUUUUUUUUUUUUUUUUUU",
"UUUUUUUUUw980uhlsssssssssssslfUUUUUUUUUU",
"UUUUUUUUUq88tjNGFFFFFFFFFFFFGNgUUUUUUUUU",
"UUUUUUUUU988ujbJJJJJJJJJJJJJJngUUUUUUUUU",
"UUUUUUUUU988ujmLKSSKPPPPKADPPngUUUUUUUUU",
"UUUUUUUUU988ujmPVO4JPPPID++AIngUUUUUUUUU",
"UUUUUUUUU988ujmLDVVKPPPPKZCJPngUUUUUUUUU",
"UUUUUUUUU988ujmPA  CIPPIZ. ZIngUUUUUUUUU",
"UUUUUUUUU988ujmPDX.ZIIPIS..AIngUUUUUUUUU",
"UUUUUUUUU988ujmLPDDJCDJVDDDPPngUUUUUUUUU",
"UUUUUUUUU988ujmLPIIJ@oOODIIPPngUUUUUUUUU",
"UUUUUUUUU988ujmLPPPPJVVDPPPPPngUUUUUUUUU",
"UUUUUUUUU988ujmLLLLLLIILLLLLPngUUUUUUUUU",
"UUUUUUUUU988ujNHHHHHHHHHHHHHHsfUUUUUUUUU",
"UUUUUUUUUq08ujjllkkllllkkkllljaUUUUUUUUU",
"UUUUUUUUre08ujjjx5vhjjhz56pjjjarUUUUUUUU",
"UUUUUUUUytq8ujjk6%<plkz;=17jkjayUUUUUUUU",
"UUUUUUUUiuq8ujB7:&$<3h72-*,5zhhiUUUUUUUU",
"UUUUUUUUuue8ukx#%&&%,pz1=22=;xjuUUUUUUUU",
"UUUUUUUdaat8ujM><##5zlhz3,*-2cjadUUUUUUU",
"UUUUUUUjjja0ujhlx$#xkjjkl512;xkjjUUUUUUU",
"UUUUUUjjjjjetjjjpc6BjjjjjB65xjjjjgUUUUUU",
"UUUUUUjjjjjt0ajjjkkjjjjjjjkjkjjjjjUUUUUU",
"UUUUUUUgjjjUUUyahUUUUUjhidUUUjjjgUUUUUUU",
"UUUUUUUUjdUUUUqeyUUUUUUt9UUUUUdjUUUUUUUU",
"UUUUUUUUUUUUUjjhgUUUUUwtajgjUUUUUUUUUUUU",
"UUUUUUUUUUUUjjjjjjUUUUwajjjjjUUUUUUUUUUU",
"UUUUUUUUUUUUgjjjjjUUUUUjjjjjjUUUUUUUUUUU"
};
